<?xml version="1.0" standalone="no"?>
<!DOCTYPE svg PUBLIC "-//W3C//DTD SVG 20010904//EN"
 "http://www.w3.org/TR/2001/REC-SVG-20010904/DTD/svg10.dtd">
<svg version="1.0" xmlns="http://www.w3.org/2000/svg"
 width="210.000000pt" height="210.000000pt" viewBox="0 0 210.000000 210.000000"
 preserveAspectRatio="xMidYMid meet">
<metadata>
Created by potrace 1.16, written by Peter Selinger 2001-2019
</metadata>
<g transform="translate(0.000000,210.000000) scale(0.100000,-0.100000)"
fill="#000000" stroke="none">
<path d="M1466 1818 c-14 -140 -11 -136 -94 -164 -128 -43 -232 -124 -310
-242 -28 -42 -34 -57 -25 -70 5 -9 77 -73 159 -142 l148 -125 53 -275 c29
-151 51 -279 50 -284 -2 -5 -41 114 -87 263 l-84 271 -55 48 c-70 60 -380 322
-403 340 -14 11 -798 166 -805 159 -1 -1 47 -45 106 -98 l108 -96 269 -53
c148 -29 278 -57 289 -61 16 -6 326 -254 345 -277 3 -3 -11 4 -30 15 -19 11
-99 57 -177 102 l-142 82 -303 60 c-167 32 -307 58 -312 56 -5 -2 33 -35 85
-74 l94 -71 209 -32 210 -32 218 -185 c120 -101 218 -186 218 -189 0 -2 -101
63 -225 146 l-224 150 -208 20 c-114 11 -233 22 -263 25 l-55 5 108 -55 108
-56 150 -14 149 -14 273 -212 c254 -197 308 -241 282 -226 -5 3 -131 82 -280
176 l-270 171 -195 0 -195 0 87 -50 88 -50 108 0 108 0 300 -211 c164 -115
304 -215 309 -221 6 -6 -55 23 -135 64 -80 42 -221 115 -315 162 l-170 87 -79
-3 -79 -3 39 -46 c37 -43 43 -46 99 -52 57 -5 84 -20 404 -207 188 -111 348
-199 354 -197 7 3 51 79 99 169 l87 164 -104 287 -105 287 0 97 0 96 23 -21
c19 -18 45 -23 171 -36 120 -12 151 -18 162 -33 7 -10 14 -21 14 -25 0 -5 41
-8 90 -8 l90 0 0 84 0 84 -246 177 c-135 98 -242 180 -236 184 5 3 18 27 30
53 l21 47 -30 59 c-16 33 -37 67 -48 76 -18 16 -19 15 -25 -56z"/>
</g>
</svg>
